<svg version="1" xmlns="http://www.w3.org/2000/svg" width="933.333" height="933.333" viewBox="0 0 700.000000 700.000000"><path d="M0 350v350h700V0H0v350zm350 2.2v2.1l2.3-2.1c2.1-2 3.4-2.2 14.8-2.2h12.4l-14.8 14.8-14.7 14.7v10l19.8-19.8 19.7-19.7h25l-32.3 32.3-32.2 32.2v10l37.3-37.3 37.2-37.2h25l-49.8 49.8-49.7 49.7v10l54.8-54.8 54.7-54.7h25l-67.3 67.3-67.2 67.2v10l72.3-72.3 72.2-72.2h25l-84.8 84.8-84.7 84.7v10l89.8-89.8 89.7-89.7h25L452.2 452.3 350 554.5v10l107.3-107.3L564.5 350h25L469.7 469.8 350 589.5v10l124.8-124.8L599.5 350h25L487.2 487.3 350 624.5v10l142.3-142.3L634.5 350h25L504.7 504.8 350 659.5v10l159.8-159.8L669.5 350h11.8c6.4 0 11.7.3 11.7.7 0 .5-76.8 77.6-170.7 171.5L351.5 693H7V350h343v2.2zm189.8 187.5L386.5 693h-25L527 527.5 692.5 362l.3 12.2.3 12.2-153.3 153.3zm17.5 17.5L421.5 693h-25l148-148 148-148 .3 12.2.3 12.2-135.8 135.8zm17.5 17.5L456.5 693h-25L562 562.5 692.5 432l.3 12.2.3 12.2-118.3 118.3zm17.5 17.5L491.5 693h-25l113-113 113-113 .3 12.2.3 12.2-100.8 100.8zm17.5 17.5L526.5 693h-25l95.5-95.5 95.5-95.5.3 12.2.3 12.2-83.3 83.3zm17.5 17.5L561.5 693h-25l78-78 78-78 .3 12.2.3 12.2-65.8 65.8zm17.5 17.5L596.5 693h-25l60.5-60.5 60.5-60.5.3 12.2.3 12.2-48.3 48.3zm17.5 17.5L631.5 693h-25l43-43 43-43 .3 12.2.3 12.2-30.8 30.8zm17.5 17.5L666.5 693h-25l25.5-25.5 25.5-25.5.3 12.2.3 12.2-13.3 13.3zM693 685v8h-16.5l8-8c4.4-4.4 8.1-8 8.2-8 .2 0 .3 3.6.3 8z"/></svg>